<?xml version="1.0" encoding="UTF-8"?>
<!DOCTYPE svg PUBLIC "-//W3C//DTD SVG 1.1//EN" "http://www.w3.org/Graphics/SVG/1.1/DTD/svg11.dtd">
<!-- Creator: CorelDRAW 2019 (64-Bit) -->
<svg xmlns="http://www.w3.org/2000/svg" xml:space="preserve" width="239.851mm" height="84.5326mm" version="1.1" style="shape-rendering:geometricPrecision; text-rendering:geometricPrecision; image-rendering:optimizeQuality; fill-rule:evenodd; clip-rule:evenodd"
viewBox="0 0 23681.55 8346.27"
 xmlns:xlink="http://www.w3.org/1999/xlink"
 xmlns:xodm="http://www.corel.com/coreldraw/odm/2003">
 <defs>
  <style type="text/css">
   <![CDATA[
    .fil2 {fill:#2B2A29}
    .fil1 {fill:#FECD0A}
    .fil3 {fill:#EB6320}
    .fil0 {fill:#1554A0}
   ]]>
  </style>
 </defs>
 <g id="Layer_x0020_1">
  <metadata id="CorelCorpID_0Corel-Layer"/>
  <path class="fil0" d="M7135.78 1354.63c-195.09,-1011.54 -1659.15,-34.78 -1915.12,-1354.63 -434.74,1253.31 607.77,1661.9 1586.4,1616.57 90.55,-102.82 201.65,-192.01 328.73,-261.94z"/>
  <path class="fil1" d="M6547.03 2223.92c-237.74,50.32 -509.5,-121.72 -594.84,-135.85 -388.51,-64.36 -766.58,83.51 -854.97,304.13 56.7,-698.59 1106.7,-998.56 1711.48,-777.51 -153.26,173.31 -247.95,385.43 -261.68,609.23z"/>
  <path class="fil2" d="M4437.59 7550.97c82.66,-33.78 167.75,-32.23 242.81,-7.74 111.9,-83.54 217.55,-168.43 309.96,-256.03 -63.95,-69.28 -91.54,-163.12 -57.65,-288.97 127.16,-471.99 993.81,-970.92 1339.85,-1601.38 705.12,28.74 1266.42,-103.22 1707.74,-369.28 356.02,162.64 754.06,241.3 1120.27,200.58 525.33,-58.41 681.68,466.9 436.91,971.61 -303.74,626.23 -871.78,1071.83 -1334.99,1018.43 -64.23,-7.41 -147.68,-24 -235.33,-49.28 -129.83,92.66 -276.78,209.34 -415.74,341.82 19.53,64.68 21.73,136.52 -1.52,208.56 -64.1,198.56 -276.35,672.83 -429.52,623.4 -153.18,-49.41 -224.12,-423.79 -160.04,-622.35 64.11,-198.55 218.17,-495.57 371.35,-446.15 11.11,3.58 22.1,7.96 32.89,13.04 49.22,-119.94 105.13,-238.03 163.64,-348.65 -34.44,-37.79 -58.17,-79.1 -66.69,-123.79 -47.76,-251.17 190.84,-426.96 364.75,-751.85 209.37,-391.15 26.93,-444.13 -171.83,-166.29 -488.53,682.92 -939,1499.02 -1919.78,1566.11 -86.91,5.94 -194.21,6 -302.11,-5.63 -155.87,60.12 -353.42,151.1 -554.91,237.84 7.89,12.92 14.69,26.26 20.27,39.9 60.86,148.98 -223.61,325.11 -416.78,404.04 -193.14,78.93 -571.8,36.51 -632.67,-112.5 -60.88,-148.99 395.97,-396.51 589.12,-475.44zm6844.59 -7349.79l-780.89 2971.72c-184.47,-26.97 -324.64,-12.8 -328.24,37.79 -3.37,47.11 112.76,111.43 276.48,159.19l-38.73 147.42c-87.99,-21.62 -168.67,-33.13 -230.32,-25.8 -90.69,-90.61 -181.97,-168.25 -253.32,-230.73 73.19,-380.43 -541.44,-491.17 -729.81,-459.81 -28.38,189.72 -434.89,552.47 -691.08,670.17 161.43,230.9 862.01,662.1 1259.26,248.9 103.13,25.59 202.56,50.12 297.36,80.18 19.38,70.6 56.46,140.93 114.68,194.13 28.54,26.1 59.11,47.93 90.67,65.48l-52.77 200.88c-40.47,8.04 -81.47,21.89 -121.39,41.93 -61.41,30.82 -110.91,78.53 -147.67,131.77 -163.75,-6.1 -326.49,-26.03 -481.36,-61.17 -88.66,-502.62 -713.12,-294.59 -1080.22,-846.86 -172.72,72.7 -937.86,234.37 -1424.85,-237.48 -233.28,1350.91 2009.35,2292.43 2445.09,1588.01 183.57,-23.02 360.56,-58.68 523.78,-105.41 34.74,21.35 83.5,35.22 140.93,43.61l-66.46 252.93c-43.31,164.82 173.36,199.34 214.62,43.8l75.94 -286.27c20.41,-0.43 41.03,-1.13 61.72,-2.02 210.45,-9.16 279.1,-286.1 206.89,-429.95 -25.99,-51.77 -69.77,-90.16 -123.86,-113.75l44.54 -167.95c66.37,-4.69 126.49,-30.36 169.91,-77.89 98.29,-107.57 115.11,-351.5 -31.03,-445.68l45.31 -170.88c185.73,27.48 327.16,13.4 330.79,-37.41 3.37,-47.27 -113.69,-111.97 -278.48,-159.79l687.96 -2593.74c79.37,-299.5 -35.82,-365.92 -125.41,-425.33zm-4141.59 2421.8c-29.97,33.38 -45.72,78.31 -39.61,125.24 11.4,87.41 94.34,148.67 185.28,136.82 90.9,-11.85 155.38,-92.33 143.97,-179.74 -2.2,-16.88 -7.07,-32.75 -14.15,-47.35 11.79,-4.41 23.79,-9.27 36.58,-16.15 76.66,-41.18 23.4,-89.56 -15.4,-89.5 -132.92,0.17 -312.41,-15.03 -504.46,-85.38 55.79,65.41 127.43,119.32 207.8,156.06zm92.25 -5.94c-36.1,4.69 -61.69,36.63 -57.16,71.33 4.52,34.71 37.44,59.02 73.54,54.33 36.1,-4.72 61.69,-36.66 57.17,-71.36 -4.52,-34.7 -37.47,-59.02 -73.55,-54.3zm1241.58 -48.38c34.04,29.24 55.49,71.76 55.49,119.09 0,88.14 -74.33,159.6 -166.02,159.6 -91.69,0 -166.02,-71.46 -166.02,-159.6 0,-17.03 2.77,-33.4 7.91,-48.79 -12.26,-2.85 -24.78,-6.13 -38.36,-11.29 -81.36,-30.92 -34.78,-85.79 3.7,-90.76 131.83,-16.99 307.84,-55.3 489.2,-149.87 -46.87,72.07 -110.95,134.78 -185.9,181.61zm-142.3 11.64c36.4,0 65.9,28.38 65.9,63.38 0,34.99 -29.49,63.35 -65.9,63.35 -36.39,0 -65.9,-28.36 -65.9,-63.35 0,-35 29.5,-63.38 65.9,-63.38zm-1347.92 1507.08c-305.66,199.32 -501.53,433.71 -614.59,655.04 -173.02,338.77 -83.16,500.43 368.64,489.02 438.76,-11.06 791,-112.33 1095.03,-285.08 -396.88,-207.03 -695.57,-494.29 -849.09,-858.99zm663.5 -3059.62c760.57,-126.35 1466.89,311.49 1577.75,977.97 110.7,666.49 -416.11,1309.27 -1176.68,1435.73 -760.58,126.24 -1466.91,-311.48 -1577.74,-978.09 -110.72,-666.48 416.1,-1309.26 1176.67,-1435.61zm-893.78 1598.75c80.05,193.69 250.27,399.49 467.31,439.57 197.1,36.41 443.47,-101.43 658.89,-119.88 209.09,-17.96 426.49,85.79 611.75,23.83 224.47,-75.04 390.92,-345.47 441.02,-546.97 43.5,-175 17.48,-299.76 -261.15,-201.87 -445.06,156.65 -1059.48,229.23 -1641.87,122.31 -273.25,-50.22 -360.38,78.83 -275.94,283.01z"/>
  <path class="fil3" d="M5220.56 3039.11l837.11 0c120.89,0 193.53,99.02 161.49,219.8l-136.41 514.15c-32.04,120.77 -157.34,219.81 -278.12,219.81l-837.1 0c-120.77,0 -193.55,-98.92 -161.47,-219.81l136.4 -514.15c32.07,-120.89 157.21,-219.8 278.11,-219.8zm-4798.44 16.95l837.08 0c120.89,0 193.54,99.02 161.49,219.8l-136.4 514.17c-32.04,120.78 -157.32,219.8 -278.12,219.8l-837.08 0c-120.78,0 -193.58,-98.91 -161.5,-219.8l136.41 -514.17c32.08,-120.89 157.23,-219.8 278.12,-219.8zm945.26 958.01l837.1 0c120.89,0 193.53,99.02 161.49,219.8l-136.4 514.17c-32.05,120.78 -157.34,219.8 -278.12,219.8l-837.1 0c-120.78,0 -193.56,-98.91 -161.48,-219.8l136.41 -514.17c32.08,-120.89 157.21,-219.8 278.11,-219.8zm928.34 974.93l837.1 0c120.89,0 193.54,99.02 161.5,219.8l-136.41 514.15c-32.04,120.77 -157.34,219.81 -278.12,219.81l-837.1 0c-120.78,0 -193.55,-98.92 -161.47,-219.81l136.4 -514.15c32.06,-120.9 157.21,-219.8 278.11,-219.8zm2399.24 -8.49l837.08 0c120.89,0 193.54,99.02 161.49,219.8l-136.4 514.17c-32.04,120.78 -157.32,219.8 -278.11,219.8l-837.1 0c-120.78,0 -193.58,-98.91 -161.5,-219.8l136.41 -514.17c32.08,-120.89 157.23,-219.8 278.12,-219.8zm-1873.62 -1932.93l837.1 0c120.89,0 193.53,99.02 161.49,219.79l-136.4 514.17c-32.06,120.78 -157.34,219.8 -278.12,219.8l-837.1 0c-120.78,0 -193.56,-98.91 -161.5,-219.8l136.41 -514.17c32.08,-120.89 157.23,-219.79 278.12,-219.79zm945.27 958.01l837.11 0c120.89,0 193.51,99.02 161.47,219.79l-136.41 514.17c-32.04,120.78 -157.32,219.8 -278.11,219.8l-837.1 0c-120.77,0 -193.57,-98.91 -161.49,-219.8l136.41 -514.17c32.08,-120.89 157.22,-219.79 278.12,-219.79z"/>
  <path class="fil2" d="M12574.13 3066.99c-13.94,0 -27.89,0 -41.87,0.07l0 0c-91.45,330.1 -182.79,660.19 -274.22,990.28 -19.38,69.99 -92.27,127.04 -162.24,127.04 -194.08,0 -388.13,0 -582.22,0 -69.98,0 -111.26,-57.07 -91.89,-127.05 185.16,-668.79 370.29,-1337.59 555.46,-2006.35 19.36,-70.01 92.27,-127.08 162.24,-127.08 263.98,0 528.11,-0.63 791.84,0.27 43.21,0.15 74.85,19.87 89.27,55.61 150.17,372.56 302.48,743.87 453,1116.21l0 0c14.08,0 28.11,0.1 42.21,0.1 96.49,-348.37 192.98,-696.75 289.36,-1045.12 19.36,-69.99 92.22,-127.08 162.2,-127.1 194.13,-0.07 388.21,-0.04 582.33,-0.04 69.97,0 111.24,57.1 91.88,127.08 -185.17,668.83 -370.32,1337.62 -555.48,2006.44 -19.37,69.99 -92.26,127.08 -162.26,127.08 -259.08,0 -518.16,-0.07 -777.25,-0.04 -41.83,0 -72.78,-18.26 -88.16,-52.02 -161.51,-355.05 -322.76,-710.28 -484.2,-1065.36zm2516.84 -1143.18c194.05,0 388.1,0 582.16,0 69.98,0 111.26,57.08 91.89,127.06 -185.08,668.83 -370.22,1337.62 -555.46,2006.45 -19.4,70 -92.27,127.05 -162.26,127.05 -194.06,0 -388.1,0 -582.16,0 -70,0 -111.28,-57.07 -91.89,-127.05 185.14,-668.83 370.29,-1337.62 555.46,-2006.43 19.38,-69.98 92.27,-127.08 162.26,-127.08zm1560.72 1143.18l0 0c-13.96,0 -27.92,0 -41.9,0.07l0 0c-91.45,330.1 -182.79,660.19 -274.22,990.27 -19.38,70 -92.27,127.05 -162.24,127.05 -194.05,0 -388.13,0 -582.19,0 -69.99,0 -111.26,-57.07 -91.9,-127.05 185.16,-668.79 370.3,-1337.55 555.44,-2006.33 19.39,-69.99 92.3,-127.1 162.28,-127.08 264,0.04 528.15,-0.62 791.88,0.3 43.23,0.17 74.85,19.89 89.27,55.66 150.02,372.51 302.69,743.48 452.76,1115.95 14.14,0.1 28.25,0.27 42.4,0.34l0 0c96.52,-348.38 192.98,-696.8 289.38,-1045.21 19.35,-69.97 92.22,-127.06 162.21,-127.08 194.11,-0.07 388.2,-0.04 582.31,-0.04 69.96,0 111.24,57.1 91.87,127.08 -185.16,668.83 -370.32,1337.64 -555.48,2006.46 -19.36,69.97 -92.25,127.06 -162.24,127.06 -258.98,0.04 -517.89,-0.19 -776.93,0.06 -41.87,0.04 -72.85,-18.21 -88.23,-51.96 -161.84,-354.98 -322.82,-710.43 -484.45,-1065.52zm3764.48 -532.71c-222.67,0 -445.34,0 -668.02,0 -69.99,0 -111.27,-57.09 -91.88,-127.08 32.84,-118.69 65.8,-237.37 98.59,-356.06 19.33,-69.97 92.22,-127.1 162.21,-127.14 459.18,-0.26 918.28,-0.11 1377.39,-0.15 69.97,0 111.27,57.02 91.94,126.99 -89.62,324.52 -178.77,649.06 -269.58,973.58 -33.72,120.5 -61.88,239.63 -111.1,359.64 -85.19,207.75 -236.72,408.95 -434.61,547.48 -232.51,162.75 -499.77,237.47 -749.99,264.44 -169.57,18.29 -335.72,17.35 -495.57,0.34 -122.92,-13.08 -241.05,-39.64 -348.32,-83.77 -131.27,-53.97 -244.59,-138.61 -316.02,-255.8 -68.1,-111.77 -94.08,-251.3 -84.9,-396.77 7.9,-125.58 44.08,-253.82 80.74,-381.52 19.94,-69.54 92.35,-125.79 161.88,-125.79 194.06,0 388.1,0 582.16,0 35.09,0 61.8,12.53 79.67,37.39 17.89,24.84 21.95,55.07 12.09,90.15 -12.29,43.84 -24.41,87.7 -35.41,131.53 -21.66,86.23 -21.62,176.2 22.57,239.27 46.21,65.97 132.63,92.82 220.88,98.43 91.45,5.82 191.37,-1.98 287.48,-45.8 68.62,-31.29 130.29,-85.26 172.05,-148.16 37.48,-56.48 61.02,-117.79 77.65,-177.95 59.29,-214.41 118.72,-428.85 178.08,-643.26zm2363.86 1369.72l0 0c-315.51,-2.17 -631.88,-1.27 -948.22,-0.45 -38.15,64.76 -78.1,128.82 -117.27,193.21 -32,52.66 -88.42,86.8 -143.99,87.11 -209.97,1.25 -419.35,0.45 -628.95,0.36 -42.75,0 -74.2,-19.13 -89.04,-54.16 -14.84,-34.99 -8.9,-76.07 16.8,-116.25 427.79,-668.77 855.59,-1337.54 1283.47,-2006.27 32.77,-51.22 88.14,-83.74 142.61,-83.74 372.27,0 744.54,0 1116.79,0 54.47,0 91.86,32.51 96.28,83.74 57.63,668.76 115.07,1337.58 172.58,2006.38 3.48,40.19 -13.35,81.28 -47.57,116.3 -34.21,34.99 -76.27,54.12 -119.02,54.14 -209.45,0.03 -418.91,0.22 -628.22,-0.14 -55.51,-0.07 -93.23,-34.09 -96.28,-86.74 -3.72,-64.37 -7.83,-128.63 -9.98,-193.49l0 0zm-617.48 -550.14c196.94,0.07 393.91,0.07 590.91,0 -13.68,-268.83 -27.97,-537.46 -41.3,-806.38l0 0c-21.47,-0.35 -43.05,-0.43 -64.67,-0.25l-0.02 0c-161.78,268.81 -323.4,537.7 -484.91,806.63z"/>
  <path class="fil3" d="M13742.65 5429.02c-226.73,-0.08 -491.64,-0.04 -718.38,-0.08 -69.98,0 -111.24,-57.09 -91.87,-127.07 33.16,-119.83 66.36,-239.66 99.54,-359.48 19.4,-69.99 92.27,-127.06 162.26,-127.06 732.3,0 1502.74,0 2235.06,0 69.99,0 111.28,57.09 91.92,127.08 -33.18,119.84 -66.37,239.71 -99.54,359.55 -19.37,69.99 -92.26,127.06 -162.24,127.08 -226.85,0.04 -453.49,-0.71 -680.71,0.65l0 0c-139.64,506.37 -280.12,1012.73 -420.3,1519.1 -19.39,70.01 -92.26,127.08 -162.25,127.08 -194.16,0 -388.33,0.1 -582.47,-0.04 -69.94,-0.03 -111.17,-57.13 -91.78,-127.09 140.35,-506.59 280.53,-1013.14 420.78,-1519.72zm2838.55 1366.05c-315.52,-1.34 -631.54,-0.76 -947.58,-0.26l-0.02 0.02c-38.75,64.77 -78.41,129.22 -117.73,193.8 -32.14,52.75 -88.75,86.89 -144.39,87.03 -209.59,0.52 -419,0.25 -628.44,0.21 -42.75,-0.02 -74.21,-19.14 -89.06,-54.16 -14.84,-34.99 -8.92,-76.1 16.81,-116.27 427.8,-668.81 855.64,-1337.6 1283.52,-2006.39 32.77,-51.2 88.14,-83.73 142.61,-83.73 372.29,0 744.57,0 1116.85,0 54.47,0 91.88,32.52 96.29,83.75 57.52,668.79 115.03,1337.58 172.53,2006.39 3.46,40.18 -13.37,81.28 -47.59,116.27 -34.23,35.01 -76.29,54.16 -119.04,54.16 -209.39,0.02 -418.83,0.13 -628.15,-0.11 -55.59,-0.08 -93.35,-34.12 -96.36,-86.86 -3.66,-64.52 -7.58,-129.01 -10.24,-193.86zm2742.87 -1275.65l0 0c19.24,-0.15 38.4,-0.08 57.48,0.28 186.36,-213.68 371.95,-427.88 557.78,-641.91 34.53,-39.75 80.44,-62.37 126.64,-62.38 216.75,-0.06 433.5,-0.08 650.24,-0.08 47.26,0 81.23,23.78 92.89,65 11.69,41.22 -2.24,88.22 -38.09,128.5 -281.7,316.59 -563.43,633.17 -845.13,949.75 107.75,307.61 215.56,615.17 323.29,922.75 14.1,40.21 2.3,87.49 -32.17,129.03 -34.49,41.56 -81.88,65.56 -129.34,65.56 -216.19,0.02 -432.38,0.04 -648.52,-0.06 -45.56,-0.02 -78.61,-22 -91.57,-60.88 -68.87,-206.55 -138.87,-412.49 -206.62,-619.62l0 0c-18.4,-0.96 -37.03,-1.2 -55.81,-0.87l0 0.02c-182.62,206.6 -365.37,413.09 -547.69,619.92 -34.47,39.11 -79.84,61.27 -125.54,61.33 -217.35,0.3 -434.59,0.15 -651.86,0.11 -47.46,-0.02 -81.54,-24.04 -93.02,-65.56 -11.48,-41.56 2.89,-88.81 39.24,-129.02 277.99,-307.61 556.13,-615.09 834.11,-922.7l0 -0.02c-106.39,-316.56 -212.85,-633.11 -319.16,-949.73 -13.54,-40.27 -1.46,-87.24 33.04,-128.46 34.49,-41.2 81.57,-64.97 128.83,-65 217.86,-0.1 435.77,-0.41 653.42,0.26 46.44,0.17 79.92,23.22 92.04,63.47 64.47,213.78 130.47,426.83 195.53,640.31l0 0zm1903.35 -704.09c194.06,0 388.13,0 582.2,0 69.96,0 111.26,57.17 91.91,127.08 -185.14,668.8 -370.33,1337.62 -555.5,2006.42 -19.34,69.91 -92.25,127.08 -162.24,127.08 -194.06,0 -388.11,0 -582.18,0 -70,0 -111.26,-57.09 -91.89,-127.08 185.14,-668.8 370.29,-1337.62 555.46,-2006.42 19.36,-69.99 92.25,-127.08 162.24,-127.08zm-4778.47 623.41c-161.76,268.81 -323.36,537.67 -484.9,806.56l0.01 0c196.91,0.17 393.88,0.17 590.88,0l0.02 0c-13.58,-268.73 -28.25,-537.11 -41.05,-806.05l0 0c-21.51,-0.66 -43.19,-0.77 -64.95,-0.51l0 0z"/>
 </g>
</svg>
